# xmcd
#
# Track frame offsets:
# 150
# 13871
# 28850
# 40324
# 50940
# 67722
# 79920
# 93007
# 108804
# 121573
#
# Disc length: 1780 seconds
#
#
# Revision: 0
# Processed by: cddbd v1.4PL0 Copyright (c) Steve Scherf et al.
# Submitted via: FreeRIP 2.35 
#
DISCID=7406f20a
DTITLE=Ike and Tina Turner - Love In Vain
DYEAR=1998
DGENRE=R&B
TTITLE0=It's Gonna Work Out Fine
TTITLE1=Crazy ' Bout You Baby
TTITLE2=Somebody SomeWhere Needs Me
TTITLE3=You Got What You Wanted
TTITLE4=I Smell Trouble
TTITLE5=Rock Me Baby
TTITLE6=Nutbush City Limits
TTITLE7=Living For The City
TTITLE8=Betcha Can't Kiss Me
TTITLE9=Sugar Sugar
EXTD=
EXTT0=
EXTT1=
EXTT2=
EXTT3=
EXTT4=
EXTT5=
EXTT6=
EXTT7=
EXTT8=
EXTT9=
PLAYORDER=
